<?xml version="1.0" encoding="UTF-8"?>
<svg width="18" height="18" id="Layer_2" xmlns="http://www.w3.org/2000/svg" version="1.1" viewBox="0 0 20 20">
  <!-- Generator: Adobe Illustrator 29.7.1, SVG Export Plug-In . SVG Version: 2.1.1 Build 8)  -->
  <defs>
    <style>
      .st0 {
        fill: #f0f1f2;
      }
    </style>
  </defs>
  <rect class="st0" width="20" height="20" rx="3" ry="3"/>
  <path d="M18,3.5v9c0,.8-.7,1.5-1.5,1.5h-1.5v-6.5c0-1.4-1.1-2.5-2.5-2.5h-6.5v-1.5c0-.8.7-1.5,1.5-1.5h9c.8,0,1.5.7,1.5,1.5ZM14,7.5v9c0,.8-.7,1.5-1.5,1.5H3.5c-.8,0-1.5-.7-1.5-1.5V7.5c0-.8.7-1.5,1.5-1.5h9c.8,0,1.5.7,1.5,1.5ZM11.9,8.4c0-.2-.2-.4-.4-.4h-7.1c-.2,0-.4.2-.4.4v1.6h7.9v-1.6Z"/>
</svg>