<?xml version="1.0" encoding="UTF-8"?>
<svg width="18" height="18" id="Layer_2" xmlns="http://www.w3.org/2000/svg" version="1.1" viewBox="0 0 20 20">
  <!-- Generator: Adobe Illustrator 29.7.1, SVG Export Plug-In . SVG Version: 2.1.1 Build 8)  -->
  <defs>
    <style>
      .st0 {
        fill: #f0f1f2;
      }
    </style>
  </defs>
  <rect class="st0" y="0" width="20" height="20" rx="3" ry="3"/>
  <path d="M12.2,2l-2,2,.9.2-.5,1.9c-.2,0-.4,0-.5,0h0l.7,1.5,1.4-.9c-.2-.1-.4-.2-.7-.3l.5-1.9,1,.3-.7-2.7h0ZM5.9,2.8v2.8l.8-.4,1,1.7c-.2.1-.3.3-.5.4l1.7.6.3-1.7c-.3,0-.5.1-.8.3l-1-1.7.9-.5-2.4-1.4h0ZM14.4,5.9l.5.8-1.7,1c-.1-.2-.3-.3-.4-.5l-.5,1.6,1.7.3c0-.2-.1-.5-.2-.7l1.7-1,.5.9,1.4-2.4h-2.8ZM4.7,7.1l-2.7.7,2,2,.2-.9,1.9.5c0,.2,0,.4,0,.7l1.6-.8-1-1.4c-.1.2-.2.4-.3.7l-1.9-.5.3-1h0ZM13.9,9.9l-1.5.8,1,1.4c.1-.2.2-.4.3-.6l1.9.5-.2.9,2.7-.7-2-1.9-.3,1-1.9-.5c0-.3,0-.5,0-.8h0ZM6.2,10.9c0,.2.1.4.2.6l-1.7,1-.4-.8-1.4,2.4h2.8l-.5-.9,1.7-1c.2.2.3.4.5.6l.6-1.7-1.7-.3h0ZM11.2,12.1l-.3,1.7c.2,0,.4-.1.6-.2l1,1.7-.8.5,2.4,1.4v-2.8l-.9.5-1-1.7c.2-.1.4-.3.6-.5l-1.6-.6h0ZM9.4,12.3l-1.5,1c.2.1.4.2.6.3l-.5,1.9-.9-.2.7,2.7,1.9-2-1-.3.5-1.9c.3,0,.6,0,.8,0l-.8-1.6h0Z"/>
</svg>