<?xml version="1.0" encoding="UTF-8"?>
<svg width="18" height="18" id="Layer_2" xmlns="http://www.w3.org/2000/svg" version="1.1" viewBox="0 0 20 20">
  <!-- Generator: Adobe Illustrator 29.7.1, SVG Export Plug-In . SVG Version: 2.1.1 Build 8)  -->
  <defs>
    <style>
      .st0 {
        fill: #f0f1f2;
      }
    </style>
  </defs>
  <rect class="st0" width="20" height="20" rx="3" ry="3"/>
  <path d="M10,18c4.4,0,8-3.6,8-8S14.4,2,10,2,2,5.6,2,10s3.6,8,8,8ZM8.8,12.5h.8v-2h-.8c-.4,0-.8-.3-.8-.8s.3-.8.8-.8h1.5c.4,0,.8.3.8.8v2.8h.2c.4,0,.8.3.8.8s-.3.8-.8.8h-2.5c-.4,0-.8-.3-.8-.8s.3-.8.8-.8ZM10,8c-.6,0-1-.4-1-1s.4-1,1-1,1,.4,1,1-.4,1-1,1Z"/>
</svg>