<?xml version="1.0" encoding="UTF-8"?>
<svg width="18" height="18" id="Layer_2" xmlns="http://www.w3.org/2000/svg" version="1.1" viewBox="0 0 20 20">
  <!-- Generator: Adobe Illustrator 29.7.1, SVG Export Plug-In . SVG Version: 2.1.1 Build 8)  -->
  <defs>
    <style>
      .st0 {
        fill: #f0f1f2;
      }
    </style>
  </defs>
  <rect class="st0" width="20" height="20" rx="3" ry="3"/>
  <path d="M6,2.1l8.2,5.1c-.4.7-.7,1-1.5,1.6l5.4-.9-2.9-4.3c.2.8.3,1.3,0,2.1L6,2.1h0ZM2,2.5l2.8,11.2c-.7.2-1.1.1-2-.1l4.3,3.9.5-5.7c-.4.8-.6,1.3-1.2,1.6L2,2.5h0ZM4.2,2.5l8.7,12.1c-.8.6-1.2.7-2.5.8l6.9,2.5-2-7.1c0,1.2,0,1.8-.7,2.5L4.2,2.5Z"/>
</svg>