<?xml version="1.0" encoding="UTF-8"?>
<svg width="18" height="18" id="Layer_2" xmlns="http://www.w3.org/2000/svg" version="1.1" viewBox="0 0 20 20">
  <!-- Generator: Adobe Illustrator 29.7.1, SVG Export Plug-In . SVG Version: 2.1.1 Build 8)  -->
  <defs>
    <style>
      .st0 {
        fill: #f0f1f2;
      }
    </style>
  </defs>
  <rect class="st0" width="20" height="20" rx="3" ry="3"/>
  <path d="M3.9,2.1c-.6,0-1.1.2-1.4.5-1.1,1.1-.4,3.7,1.7,5.7,1.4,1.4,3.1,1.5,4.3,1.9-1.3,1.2-2.8,2.3-4.4,3.4l2.1,2.1c1.1-1.8,2.3-3.4,3.6-4.8,2.3,1.5,3.8,4.3,5.4,7.1l2.9-3c-2.8-1.5-5.6-3-7.1-5.3,1.4-1.3,2.9-2.5,4.7-3.7l-2.1-2.1c-1,1.7-2.1,3.1-3.3,4.4-.4-1.1-.6-2.9-2-4.2-1.4-1.4-3-2.2-4.3-2.1h0ZM4.5,3.7c.7,0,1.7.6,2.6,1.4,1.3,1.2,1.8,2.7,1.2,3.3-.6.6-2.1,0-3.3-1.2-1.3-1.2-1.8-2.7-1.2-3.3.2-.2.4-.2.7-.2Z"/>
</svg>