<?xml version="1.0" encoding="UTF-8"?>
<svg width="18" height="18" id="Layer_2" xmlns="http://www.w3.org/2000/svg" version="1.1" viewBox="0 0 20 20">
  <!-- Generator: Adobe Illustrator 29.7.1, SVG Export Plug-In . SVG Version: 2.1.1 Build 8)  -->
  <defs>
    <style>
      .st0 {
        fill: #f0f1f2;
      }
    </style>
  </defs>
  <rect class="st0" width="20" height="20" rx="3" ry="3"/>
  <path d="M9.5,5h2c.3,0,.5-.2.5-.5v-1c0-.3-.2-.5-.5-.5h-2c-.3,0-.5.2-.5.5v1c0,.3.2.5.5.5ZM9.5,9h4c.3,0,.5-.2.5-.5v-1c0-.3-.2-.5-.5-.5h-4c-.3,0-.5.2-.5.5v1c0,.3.2.5.5.5ZM17.5,15h-8c-.3,0-.5.2-.5.5v1c0,.3.2.5.5.5h8c.3,0,.5-.2.5-.5v-1c0-.3-.2-.5-.5-.5ZM9.5,13h6c.3,0,.5-.2.5-.5v-1c0-.3-.2-.5-.5-.5h-6c-.3,0-.5.2-.5.5v1c0,.3.2.5.5.5ZM7.5,13h-1.5V3.5c0-.3-.2-.5-.5-.5h-1c-.3,0-.5.2-.5.5v9.5h-1.5c-.4,0-.7.5-.3.9l2.5,3c.2.2.5.2.7,0l2.5-3c.3-.3,0-.9-.4-.9h0Z"/>
</svg>