<?xml version="1.0" encoding="UTF-8"?>
<svg width="18" height="18" id="Layer_2" xmlns="http://www.w3.org/2000/svg" version="1.1" viewBox="0 0 20 20">
  <!-- Generator: Adobe Illustrator 29.7.1, SVG Export Plug-In . SVG Version: 2.1.1 Build 8)  -->
  <defs>
    <style>
      .st0 {
        fill: #f0f1f2;
      }
    </style>
  </defs>
  <rect class="st0" width="20" height="20" rx="3" ry="3"/>
  <path d="M2,15c0-.5.4-1,1-1h1.7c.4-.9,1.3-1.5,2.3-1.5s1.9.6,2.3,1.5h7.7c.5,0,1,.5,1,1s-.5,1-1,1h-7.7c-.4.9-1.3,1.5-2.3,1.5s-1.9-.6-2.3-1.5h-1.7c-.6,0-1-.5-1-1ZM8,15c0-.5-.4-1-1-1s-1,.5-1,1,.4,1,1,1,1-.5,1-1ZM13,7.5c1,0,1.9.6,2.3,1.5h1.7c.5,0,1,.4,1,1s-.5,1-1,1h-1.7c-.4.9-1.3,1.5-2.3,1.5s-1.9-.6-2.3-1.5H3c-.6,0-1-.4-1-1s.4-1,1-1h7.7c.4-.9,1.3-1.5,2.3-1.5ZM14,10c0-.6-.5-1-1-1s-1,.4-1,1,.5,1,1,1,1-.4,1-1ZM17,4c.5,0,1,.4,1,1s-.5,1-1,1h-6.7c-.4.9-1.3,1.5-2.3,1.5s-1.9-.6-2.3-1.5h-2.7c-.6,0-1-.4-1-1s.4-1,1-1h2.7c.4-.9,1.3-1.5,2.3-1.5s1.9.6,2.3,1.5c0,0,6.7,0,6.7,0ZM7,5c0,.6.4,1,1,1s1-.4,1-1-.4-1-1-1-1,.4-1,1Z"/>
</svg>