<?xml version="1.0" encoding="UTF-8"?>
<svg width="18" height="18" id="Layer_2" xmlns="http://www.w3.org/2000/svg" version="1.1" viewBox="0 0 20 20">
  <!-- Generator: Adobe Illustrator 29.7.1, SVG Export Plug-In . SVG Version: 2.1.1 Build 8)  -->
  <defs>
    <style>
      .st0 {
        fill: #f0f1f2;
      }
    </style>
  </defs>
  <rect class="st0" width="20" height="20" rx="3" ry="3"/>
  <path d="M18,10c0,4.4-3.6,8-8,8S2,14.4,2,10,5.6,2,10,2s8,3.6,8,8ZM10.2,4.7c-1.8,0-2.9.7-3.8,2.1-.1.2,0,.4,0,.5l1.1.9c.2.1.4.1.5,0,.6-.7,1-1.1,1.9-1.1s1.5.4,1.5,1.1-.4.7-1.1,1.1c-.8.4-1.8.9-1.8,2.3h0c0,.3.2.5.4.5h1.8c.2,0,.4-.2.4-.4h0c0-1,2.7-1,2.7-3.5s-1.9-3.3-3.8-3.3h0ZM10,12.6c-.8,0-1.5.7-1.5,1.5s.7,1.5,1.5,1.5,1.5-.7,1.5-1.5-.7-1.5-1.5-1.5Z"/>
</svg>