<?xml version="1.0" encoding="UTF-8"?>
<svg width="18" height="18" id="Layer_2" xmlns="http://www.w3.org/2000/svg" version="1.1" viewBox="0 0 20 20">
  <!-- Generator: Adobe Illustrator 29.7.1, SVG Export Plug-In . SVG Version: 2.1.1 Build 8)  -->
  <defs>
    <style>
      .st0 {
        fill: #f0f1f2;
      }
    </style>
  </defs>
  <rect class="st0" width="20" height="20" rx="3" ry="3"/>
  <path d="M18,15c0,1.1-.9,2-2,2H4c-1.1,0-2-.9-2-2V5c0-1.1.9-2,2-2h3.7c.5,0,1,.2,1.4.6l.8.8c.4.4.9.6,1.4.6h4.7c1.1,0,2,.9,2,2v8h0ZM9.2,13.8c0,.4.3.8.8.8s.8-.3.8-.8v-2h2c.4,0,.8-.3.8-.8s-.3-.8-.8-.8h-2v-2c0-.4-.3-.8-.8-.8s-.8.3-.8.8v2h-2c-.4,0-.8.3-.8.8s.3.8.8.8h2v2Z"/>
</svg>