<?xml version="1.0" encoding="UTF-8"?>
<svg width="18" height="18"  id="Layer_2" xmlns="http://www.w3.org/2000/svg" version="1.1" viewBox="0 0 10.3 10.3">
  <!-- Generator: Adobe Illustrator 29.7.1, SVG Export Plug-In . SVG Version: 2.1.1 Build 8)  -->
  <defs>
    <style>
      .st0 {
        fill: #f0f1f2;
      }
    </style>
  </defs>
  <rect class="st0" width="10.3" height="10.3" rx="1.5" ry="1.5"/>
  <path d="M1,5.2C1,2.9,2.9,1,5.2,1s4.1,1.8,4.1,4.1-1.8,4.1-4.1,4.1S1,7.4,1,5.2ZM5.2,7c.2,0,.4-.2.4-.4v-1h1c.2,0,.4-.2.4-.4s-.2-.4-.4-.4h-1v-1c0-.2-.2-.4-.4-.4s-.4.2-.4.4v1h-1c-.2,0-.4.2-.4.4s.2.4.4.4h1v1c0,.2.2.4.4.4Z"/>
</svg>