<?xml version="1.0" encoding="UTF-8"?>
<svg width="18" height="18" id="Layer_2" xmlns="http://www.w3.org/2000/svg" version="1.1" viewBox="0 0 20 20">
  <!-- Generator: Adobe Illustrator 29.7.1, SVG Export Plug-In . SVG Version: 2.1.1 Build 8)  -->
  <defs>
    <style>
      .st0 {
        fill: #f0f1f2;
      }
    </style>
  </defs>
  <rect class="st0" width="20" height="20" rx="3" ry="3"/>
  <path d="M3.8,3c-1,0-1.8.9-1.8,2v10c0,1.1.8,2,1.8,2h12.4c1,0,1.8-.9,1.8-2V5c0-1.1-.8-2-1.8-2H3.8ZM5.7,5h8.5c.5,0,.9.3.9.8s-.4.8-.9.8H5.8c-.5,0-.9-.3-.9-.8s.4-.8.9-.8h0ZM5.7,8h8.5c.5,0,.9.3.9.8s-.4.8-.9.8H5.8c-.5,0-.9-.3-.9-.8s.4-.8.9-.8h0ZM9.9,11.1l2.2,2.2-2.2,2.2-2.2-2.2,2.2-2.2Z"/>
</svg>