<?xml version="1.0" encoding="UTF-8"?>
<svg width="18" height="18" id="Layer_2" xmlns="http://www.w3.org/2000/svg" version="1.1" viewBox="0 0 20 20">
  <!-- Generator: Adobe Illustrator 29.7.1, SVG Export Plug-In . SVG Version: 2.1.1 Build 8)  -->
  <defs>
    <style>
      .st0 {
        fill: #f0f1f2;
      }
    </style>
  </defs>
  <rect class="st0" width="20" height="20" rx="3" ry="3"/>
  <path d="M2,5.6c0-1,.8-1.8,1.8-1.8h12.4c1,0,1.8.8,1.8,1.8v8.9c0,1-.8,1.8-1.8,1.8H3.8c-1,0-1.8-.8-1.8-1.8,0,0,0-8.9,0-8.9ZM6.4,10c0-.5-.4-.9-.9-.9s-.9.4-.9.9.4.9.9.9.9-.4.9-.9ZM6.4,7.3c0-.5-.4-.9-.9-.9s-.9.4-.9.9.4.9.9.9.9-.4.9-.9ZM6.4,12.7c0-.5-.4-.9-.9-.9s-.9.4-.9.9.4.9.9.9.9-.4.9-.9ZM8.2,6.7c-.4,0-.7.3-.7.7s.3.7.7.7h6.2c.4,0,.7-.3.7-.7s-.3-.7-.7-.7h-6.2ZM8.2,9.3c-.4,0-.7.3-.7.7s.3.7.7.7h6.2c.4,0,.7-.3.7-.7s-.3-.7-.7-.7h-6.2ZM8.2,12c-.4,0-.7.3-.7.7s.3.7.7.7h6.2c.4,0,.7-.3.7-.7s-.3-.7-.7-.7h-6.2Z"/>
</svg>