<?xml version="1.0" encoding="UTF-8"?>
<svg width="18" height="18" id="Layer_2" xmlns="http://www.w3.org/2000/svg" version="1.1" viewBox="0 0 20 20">
  <!-- Generator: Adobe Illustrator 29.7.1, SVG Export Plug-In . SVG Version: 2.1.1 Build 8)  -->
  <defs>
    <style>
      .st0 {
        fill: #f0f1f2;
      }
    </style>
  </defs>
  <rect class="st0" width="20" height="20" rx="3" ry="3"/>
  <path d="M2,5.1v1.3c0,.5.4.9.9.9h1.8v-2.2c0-.7-.6-1.3-1.3-1.3s-1.3.6-1.3,1.3h0ZM5.1,3.8c.3.4.4.8.4,1.3v8.4c0,1,.8,1.8,1.8,1.8s1.8-.8,1.8-1.8h0c0-1,.7-1.8,1.6-1.8h4.6v-5.3c0-1.5-1.2-2.7-2.7-2.7h-7.6,0ZM14.9,16.2c1.7,0,3.1-1.4,3.1-3.1s-.2-.4-.4-.4h-6.8c-.4,0-.7.3-.7.7h0c0,1.6-1.2,2.8-2.7,2.8h7.6,0Z"/>
</svg>