<?xml version="1.0" encoding="UTF-8"?>
<svg width="18" height="18" id="Layer_2" xmlns="http://www.w3.org/2000/svg" version="1.1" viewBox="0 0 20 20">
  <!-- Generator: Adobe Illustrator 29.7.1, SVG Export Plug-In . SVG Version: 2.1.1 Build 8)  -->
  <defs>
    <style>
      .st0 {
        fill: #f0f1f2;
      }
    </style>
  </defs>
  <rect class="st0" width="20" height="20" rx="3" ry="3"/>
  <path d="M9.7,10c-.2-.5-.1-1.5,0-1.5.3,0,.2,1.1,0,1.5ZM9.6,11.5c-.2.6-.5,1.4-.9,2,.6-.2,1.2-.5,2-.7-.4-.3-.8-.7-1.1-1.3h0ZM6.7,15.4s.4-.2,1.1-1.3c-.2.2-.9.8-1.1,1.3ZM11.8,7h4.2v10.2c0,.4-.3.8-.8.8H4.7c-.4,0-.8-.3-.8-.8V2.8c0-.4.3-.8.8-.8h6.2v4.2c0,.4.3.8.8.8ZM11.5,12.4c-.6-.4-1-.9-1.3-1.7.1-.6.4-1.5.2-2-.1-.9-1.3-.8-1.5-.2-.2.6,0,1.4.2,2.4-.4.9-.9,2-1.3,2.7h0c-.9.4-2.3,1.4-1.7,2.1.2.2.5.3.7.3.6,0,1.1-.6,1.9-1.9.8-.3,1.7-.6,2.5-.7.7.4,1.5.6,2,.6.9,0,1-1,.6-1.4-.4-.4-1.7-.3-2.3-.2h0ZM15.8,5.3l-3.1-3.1c-.1-.1-.3-.2-.5-.2h-.2v4h4v-.2c0-.2,0-.4-.2-.5ZM13.5,13.3c.1,0,0-.4-1.3-.3,1.2.5,1.3.3,1.3.3Z"/>
</svg>