<?xml version="1.0" encoding="UTF-8"?>
<svg width="18" height="18" id="Layer_2" xmlns="http://www.w3.org/2000/svg" version="1.1" viewBox="0 0 20 20">
  <!-- Generator: Adobe Illustrator 29.7.1, SVG Export Plug-In . SVG Version: 2.1.1 Build 8)  -->
  <defs>
    <style>
      .st0 {
        fill: #f0f1f2;
      }
    </style>
  </defs>
  <rect class="st0" width="20" height="20" rx="3" ry="3"/>
  <path d="M15.3,11c-.5-.5-1.3-.1-1.3.5v1.5h-1.5l-5.7-7.6c-.2-.2-.5-.4-.8-.4h-3c-.6,0-1,.4-1,1s.4,1,1,1h2.5l5.7,7.6c.2.2.5.4.8.4h2v1.5c0,.7.8,1,1.3.5l2.5-2.5c.3-.3.3-.8,0-1.1l-2.5-2.5h0ZM12.5,7h1.5v1.5c0,.7.8,1,1.3.5l2.5-2.5c.3-.3.3-.8,0-1.1l-2.5-2.5c-.5-.5-1.3-.1-1.3.5v1.5h-2c-.3,0-.6.1-.8.4l-1.3,1.7,1.2,1.7,1.3-1.8h0ZM5.5,13h-2.5c-.6,0-1,.5-1,1s.4,1,1,1h3c.3,0,.6-.1.8-.4l1.3-1.7-1.2-1.7-1.3,1.8h0Z"/>
</svg>