<?xml version="1.0" encoding="UTF-8"?>
<svg width="18" height="18" id="Layer_2" xmlns="http://www.w3.org/2000/svg" version="1.1" viewBox="0 0 20 20">
  <!-- Generator: Adobe Illustrator 29.7.1, SVG Export Plug-In . SVG Version: 2.1.1 Build 8)  -->
  <defs>
    <style>
      .st0 {
        fill: #f0f1f2;
      }
    </style>
  </defs>
  <rect class="st0" width="20" height="20" rx="3" ry="3"/>
  <path d="M9.6,2h-.1c-.3,0-.6,0-.8.2-.2.1-.2.2-.2.3h0v1s2.1,0,2.1,0v-1.1c0,0,0-.2-.3-.3-.1,0-.4-.1-.6-.1h-.1ZM17.4,4l-15,.3v2.2c0,0,5.4.1,5.4.1l-5.2.3v3.4c0,0,0,0,0,0h.3c0,0,0,.4,0,.4l-.2,2.3,14.9-.3-.2-2.2h-4.9c0-.1,4.8-.4,4.8-.4l-.3-3.5h-4.8c0-.1,5.3-.5,5.3-.5v-2.2h0ZM10.9,13.6h-2.1s.1,4.4.1,4.4h2.1v-4.4h-.1Z"/>
</svg>