<?xml version="1.0" encoding="UTF-8"?>
<svg width="18" height="18" id="Layer_2" xmlns="http://www.w3.org/2000/svg" version="1.1" viewBox="0 0 20 20">
  <!-- Generator: Adobe Illustrator 29.7.1, SVG Export Plug-In . SVG Version: 2.1.1 Build 8)  -->
  <defs>
    <style>
      .st0 {
        fill: #f0f1f2;
      }
    </style>
  </defs>
  <rect class="st0" width="20" height="20" rx="3" ry="3"/>
  <path d="M2,4.3c0-.6.5-1.1,1.1-1.1h13.7c.6,0,1.1.5,1.1,1.1s-.5,1.1-1.1,1.1H3.1c-.6,0-1.1-.5-1.1-1.1ZM2,10c0-.6.5-1.1,1.1-1.1h13.7c.6,0,1.1.5,1.1,1.1s-.5,1.1-1.1,1.1H3.1c-.6,0-1.1-.5-1.1-1.1ZM16.9,16.9H3.1c-.6,0-1.1-.5-1.1-1.1s.5-1.1,1.1-1.1h13.7c.6,0,1.1.5,1.1,1.1s-.5,1.1-1.1,1.1h0Z"/>
</svg>