<?xml version="1.0" encoding="UTF-8"?>
<svg width="18" height="18" id="Layer_2" xmlns="http://www.w3.org/2000/svg" version="1.1" viewBox="0 0 20 20">
  <!-- Generator: Adobe Illustrator 29.7.1, SVG Export Plug-In . SVG Version: 2.1.1 Build 8)  -->
  <defs>
    <style>
      .st0 {
        fill: #f0f1f2;
      }
    </style>
  </defs>
  <rect class="st0" width="20" height="20" rx="3" ry="3"/>
  <path d="M14.8,8.2l-4,4.5c-.2.2-.5.3-.7.3h-.1c-.3,0-.6-.1-.7-.3l-4-4.5c-.1-.1-.2-.3-.2-.5,0-.4.3-.7.7-.7h2.3V3c0-.5.4-1,1-1h2c.6,0,1,.5,1,1v4h2.3c.4,0,.7.3.7.7s0,.4-.2.5h0ZM5,13v2c0,.5.4,1,1,1h8c.5,0,1-.5,1-1v-2c0-.6.5-1,1-1s1,.4,1,1v2c0,1.7-1.3,3-3,3H6c-1.7,0-3-1.3-3-3v-2c0-.6.4-1,1-1s1,.4,1,1Z"/>
</svg>