<?xml version="1.0" encoding="UTF-8"?>
<svg width="18" height="18" id="Layer_2" xmlns="http://www.w3.org/2000/svg" version="1.1" viewBox="0 0 20 20">
  <!-- Generator: Adobe Illustrator 29.7.1, SVG Export Plug-In . SVG Version: 2.1.1 Build 8)  -->
  <defs>
    <style>
      .st0 {
        fill: #f0f1f2;
      }
    </style>
  </defs>
  <rect class="st0" width="20" height="20" rx="3" ry="3"/>
  <path d="M7.4,13.4c.8,0,1.4.6,1.4,1.4v1.7c0,.8-.6,1.4-1.4,1.4h-1.7c-.8,0-1.4-.6-1.4-1.4v-1.7c0-.8.6-1.4,1.4-1.4h1.7ZM14.3,13.4c.8,0,1.4.6,1.4,1.4v1.7c0,.8-.6,1.4-1.4,1.4h-1.7c-.8,0-1.4-.6-1.4-1.4v-1.7c0-.8.6-1.4,1.4-1.4h1.7ZM5.7,12.3c-.8,0-1.4-.6-1.4-1.4v-1.7c0-.8.6-1.4,1.4-1.4h1.7c.8,0,1.4.6,1.4,1.4v1.7c0,.8-.6,1.4-1.4,1.4h-1.7ZM14.3,7.7c.8,0,1.4.6,1.4,1.4v1.7c0,.8-.6,1.4-1.4,1.4h-1.7c-.8,0-1.4-.6-1.4-1.4v-1.7c0-.8.6-1.4,1.4-1.4h1.7ZM5.7,6.6c-.8,0-1.4-.6-1.4-1.4v-1.7c0-.8.6-1.4,1.4-1.4h1.7c.8,0,1.4.6,1.4,1.4v1.7c0,.8-.6,1.4-1.4,1.4h-1.7ZM14.3,2c.8,0,1.4.6,1.4,1.4v1.7c0,.8-.6,1.4-1.4,1.4h-1.7c-.8,0-1.4-.6-1.4-1.4v-1.7c0-.8.6-1.4,1.4-1.4h1.7Z"/>
</svg>