<?xml version="1.0" encoding="UTF-8"?>
<svg width="18" height="18" id="Layer_2" xmlns="http://www.w3.org/2000/svg" version="1.1" viewBox="0 0 20 20">
  <!-- Generator: Adobe Illustrator 29.7.1, SVG Export Plug-In . SVG Version: 2.1.1 Build 8)  -->
  <defs>
    <style>
      .st0 {
        fill: #f0f1f2;
      }
    </style>
  </defs>
  <rect class="st0" width="20" height="20" rx="3" ry="3"/>
  <path d="M10,2c4.4,0,8,3.6,8,8s-3.6,8-8,8S2,14.4,2,10,5.6,2,10,2ZM13.7,9.4l-4.4-4.4c-.3-.3-.8-.3-1.1,0l-.6.6c-.3.3-.3.8,0,1.1l3.3,3.3-3.3,3.3c-.3.3-.3.8,0,1.1l.6.5c.3.3.8.3,1.1,0l4.4-4.4c.3-.3.3-.8,0-1.1Z"/>
</svg>