<?xml version="1.0" encoding="UTF-8"?>
<svg width="18" height="18" id="Layer_2" xmlns="http://www.w3.org/2000/svg" version="1.1" viewBox="0 0 20 20">
  <!-- Generator: Adobe Illustrator 29.7.1, SVG Export Plug-In . SVG Version: 2.1.1 Build 8)  -->
  <defs>
    <style>
      .st0 {
        fill: #f0f1f2;
      }
    </style>
  </defs>
  <rect class="st0" width="20" height="20" rx="3" ry="3"/>
  <path d="M17.7,1.6c-.8-.8-2-.8-2.8,0l-1.1,1.1,3.5,3.5,1.1-1.1c.8-.8.8-2,0-2.8l-.7-.7h0ZM7.1,9.4c-.2.2-.4.5-.5.8l-1.1,3.1c-.1.3,0,.6.2.9s.6.3.9.2l3.2-1.1c.3-.1.6-.3.8-.5l5.9-5.9-3.5-3.5-5.9,5.9h0ZM4.4,3.1c-1.9,0-3.4,1.5-3.4,3.4v9.1c0,1.9,1.5,3.4,3.4,3.4h9.1c1.9,0,3.4-1.5,3.4-3.4v-3.4c0-.6-.5-1.1-1.1-1.1s-1.1.5-1.1,1.1v3.4c0,.6-.5,1.1-1.1,1.1H4.4c-.6,0-1.1-.5-1.1-1.1V6.5c0-.6.5-1.1,1.1-1.1h3.4c.6,0,1.1-.5,1.1-1.1s-.5-1.1-1.1-1.1h-3.4,0Z"/>
</svg>