<?xml version="1.0" encoding="UTF-8"?>
<svg width="18" height="18" id="Layer_2" xmlns="http://www.w3.org/2000/svg" version="1.1" viewBox="0 0 20 20">
  <!-- Generator: Adobe Illustrator 29.7.1, SVG Export Plug-In . SVG Version: 2.1.1 Build 8)  -->
  <defs>
    <style>
      .st0 {
        fill: #f0f1f2;
      }
    </style>
  </defs>
  <rect class="st0" width="20" height="20" rx="3" ry="3"/>
  <path d="M12.3,2c-.6,0-1.1.5-1.1,1.1s.5,1.1,1.1,1.1h1.8l-6.1,6.1c-.4.4-.4,1.2,0,1.6s1.2.4,1.6,0l6-6.1v1.8c0,.6.5,1.1,1.1,1.1s1.1-.5,1.1-1.1V3.1c0-.6-.5-1.1-1.1-1.1,0,0-4.6,0-4.6,0ZM4.9,3.1c-1.6,0-2.9,1.3-2.9,2.9v9.1c0,1.6,1.3,2.9,2.9,2.9h9.1c1.6,0,2.9-1.3,2.9-2.9v-2.9c0-.6-.5-1.1-1.1-1.1s-1.1.5-1.1,1.1v2.9c0,.3-.3.6-.6.6H4.9c-.3,0-.6-.3-.6-.6V6c0-.3.3-.6.6-.6h2.9c.6,0,1.1-.5,1.1-1.1s-.5-1.1-1.1-1.1h-2.9Z"/>
</svg>