<?xml version="1.0" encoding="UTF-8"?>
<svg width="18" height="18" id="Layer_2" xmlns="http://www.w3.org/2000/svg" version="1.1" viewBox="0 0 20 20">
  <!-- Generator: Adobe Illustrator 29.7.1, SVG Export Plug-In . SVG Version: 2.1.1 Build 8)  -->
  <defs>
    <style>
      .st0 {
        fill: #f0f1f2;
      }
    </style>
  </defs>
  <rect class="st0" width="20" height="20" rx="3" ry="3"/>
  <path d="M16,5.8v.2h-4V2h.2c.2,0,.4,0,.5.2l3.1,3.1c.1.1.2.3.2.5ZM11.8,7c-.4,0-.8-.3-.8-.8V2h-6.2c-.4,0-.8.3-.8.8v14.5c0,.4.3.8.8.8h10.5c.4,0,.8-.3.8-.8V7h-4.2ZM7.5,7.5c.8,0,1.5.7,1.5,1.5s-.7,1.5-1.5,1.5-1.5-.7-1.5-1.5.7-1.5,1.5-1.5ZM14,15H6v-1.5s1.2-1.2,1.2-1.2c.1-.1.4-.1.5,0l1.2,1.2,3.2-3.2c.1-.1.4-.1.5,0l1.2,1.2v3.5h0Z"/>
</svg>