<?xml version="1.0" encoding="UTF-8"?>
<svg width="18" height="18" id="Layer_2" xmlns="http://www.w3.org/2000/svg" version="1.1" viewBox="0 0 20 20">
  <!-- Generator: Adobe Illustrator 29.7.1, SVG Export Plug-In . SVG Version: 2.1.1 Build 8)  -->
  <defs>
    <style>
      .st0 {
        fill: #f0f1f2;
      }
    </style>
  </defs>
  <rect class="st0" width="20" height="20" rx="3" ry="3"/>
  <path d="M11.5,3.5c0,.8-.7,1.5-1.5,1.5s-1.5-.7-1.5-1.5.7-1.5,1.5-1.5,1.5.7,1.5,1.5ZM9.7,13v4c0,.5-.4,1-1,1s-1-.5-1-1v-7l-.9,1.5c-.3.5-.9.6-1.4.3s-.6-.9-.3-1.4l1.8-3c.5-.9,1.5-1.5,2.6-1.5h.9c1.1,0,2,.6,2.6,1.5l1.8,3c.3.5.1,1.1-.3,1.4-.5.3-1.1.1-1.4-.3l-.9-1.5v7c0,.5-.4,1-1,1s-1-.5-1-1v-4h-.5Z"/>
</svg>