<?xml version="1.0" encoding="UTF-8"?>
<svg width="18" height="18" id="Layer_2" xmlns="http://www.w3.org/2000/svg" version="1.1" viewBox="0 0 20 20">
  <!-- Generator: Adobe Illustrator 29.7.1, SVG Export Plug-In . SVG Version: 2.1.1 Build 8)  -->
  <defs>
    <style>
      .st0 {
        fill: #f0f1f2;
      }
    </style>
  </defs>
  <rect class="st0" x="0" width="20" height="20" rx="3" ry="3"/>
  <path d="M4.7,2h-.1c0,0-.2,0-.3,0-.7,0-1.3.5-1.8,1.1-.8,1.3,0,3.3,1.9,3.3h0s2,0,2,0c-.4,1.1-1,2.2-1.8,3.4,0,.1-.1.2-.2.4l1.2,1.2-1.9.3c-1.1,2.9-.9,6.1,1.6,6.1h.3c.8,0,1.6-.1,2.1-.4.1,0,.3-.2.4-.3h-1.1c-.7.2-1.4-.2-1.6-.9-.3-.9.2-1.8,1.1-2,.2,0,.4-.1.6-.1h6c0-1.5.5-3.1,1.7-4.3.8-.9,1.4-2.1,1.7-3.2l-1.4-.8,1.3-.2-1.5-.9h0l1.8-.3c-.2-1.3-1-2.3-2.6-2.3-1.5.3-5.5.4-7.9.2-.5-.2-1-.4-1.6-.4h0ZM4.7,2.6c.4,0,.9.1,1.4.4h0c.2.2.3.3.4.5h-2.5l.4.5c.4.5.7,1.1.7,1.4,0,.2,0,.2,0,.3,0,0-.2.1-.5.1-1.4,0-1.9-1.5-1.4-2.3.4-.5.8-.8,1.3-.9.1,0,.2,0,.3,0ZM5.2,4.1h1.6c.1.5.1,1.1,0,1.7h-1.1c0-.2,0-.4,0-.5,0-.4-.2-.8-.5-1.2h0ZM8.6,14.8c.2.2.4.5.4.8.1.6.1,1,0,1.5-.1.4-.4.7-.8.9h8c.5,0,.8-.2,1.1-.5.2-.3.4-.7.4-1.1,0-.1,0-.3,0-.4l-2.4-.3,1.4-.7c-.3-.1-.6-.2-1.1-.2h-7ZM7.2,14.8h-.1c0,0-.2,0-.3,0-.5.2-.9.7-.7,1.2.1.4.5.6.9.5h0s1.5,0,1.5,0c0-.2,0-.5,0-.8-.1-.5-.7-1-1.3-1h0Z"/>
</svg>