<?xml version="1.0" encoding="UTF-8"?>
<svg width="18" height="18" id="Layer_2" xmlns="http://www.w3.org/2000/svg" version="1.1" viewBox="0 0 20 20">
  <!-- Generator: Adobe Illustrator 29.7.1, SVG Export Plug-In . SVG Version: 2.1.1 Build 8)  -->
  <defs>
    <style>
      .st0 {
        fill: #f0f1f2;
      }
    </style>
  </defs>
  <rect class="st0" width="20" height="20" rx="3" ry="3"/>
  <path d="M18,4.5c0,.6-.5,1.1-1.2,1.5-.9.5-2.3.9-3.8,1-.1,0-.2-.1-.4-.2-1.2-.5-2.9-.8-4.6-.8s-.5,0-.8,0h0c-.8-.4-1.2-1-1.2-1.5,0-1.4,2.7-2.5,6-2.5s6,1.1,6,2.5ZM7,7c.3,0,.6,0,1,0,1.9,0,3.7.4,4.8,1,.8.4,1.2.9,1.2,1.5s0,.2,0,.4c-.1.4-.6.8-1.1,1.1h0s0,0,0,0c-1.1.6-2.8,1-4.8,1s-3.5-.4-4.6-.9c0,0-.1,0-.2,0-.8-.4-1.2-.9-1.2-1.5,0-1.1,1.7-2,4-2.4.3,0,.7,0,1-.1h0ZM14.2,7.8c.9-.1,1.7-.4,2.4-.6.5-.2,1-.5,1.4-.8v1.1c0,.6-.5,1.2-1.4,1.6-.5.2-1,.4-1.6.6v-.2c0-.7-.3-1.2-.8-1.7h0ZM14,12.5c0,.6-.5,1.1-1.2,1.5,0,0-.1,0-.2,0-1.1.6-2.8.9-4.6.9s-3.7-.4-4.8-1c-.8-.4-1.2-.9-1.2-1.5v-1.1c.4.3.9.6,1.4.8,1.2.5,2.9.8,4.6.8s3.4-.3,4.6-.8c.2-.1.5-.2.7-.3.2-.1.4-.2.5-.4,0,0,0,0,.1-.1v1.1ZM15,10.7c.6-.2,1.1-.3,1.6-.5.5-.2,1-.5,1.4-.8v1.1c0,.3-.2.7-.5,1-.5.5-1.4.9-2.5,1.2v-2h0ZM8,16c1.8,0,3.4-.3,4.6-.8.5-.2,1-.5,1.4-.8v1.1c0,1.4-2.7,2.5-6,2.5s-6-1.1-6-2.5v-1.1c.4.3.9.6,1.4.8,1.2.5,2.9.8,4.6.8Z"/>
</svg>