<?xml version="1.0" encoding="UTF-8"?>
<svg width="18" height="18" id="Layer_2" xmlns="http://www.w3.org/2000/svg" version="1.1" viewBox="0 0 20 20">
  <!-- Generator: Adobe Illustrator 29.7.1, SVG Export Plug-In . SVG Version: 2.1.1 Build 8)  -->
  <defs>
    <style>
      .st0 {
        fill: #f0f1f2;
      }
    </style>
  </defs>
  <rect class="st0" width="20" height="20" rx="3" ry="3"/>
  <path d="M2,3c0-.6.4-1,1-1h2c.6,0,1,.4,1,1v2H2v-2ZM2,6h4v8H2V6ZM2,15h4v2c0,.5-.4,1-1,1h-2c-.6,0-1-.5-1-1v-2ZM7,3c0-.6.4-1,1-1h2c.6,0,1,.4,1,1v2h-4v-2ZM7,6h4v8h-4V6ZM7,15h4v2c0,.5-.4,1-1,1h-2c-.6,0-1-.5-1-1v-2ZM13.4,14.4l-1.4-5.1v-2.8l3.1-.8,2.1,7.7-3.8,1h0ZM14.9,4.7l-2.9.8v-3.1l1.1-.3c.5-.1,1.1.2,1.2.7l.5,1.9h0ZM13.6,15.4l3.8-1,.5,1.9c.1.5-.2,1.1-.7,1.2l-1.9.5c-.5.1-1.1-.2-1.2-.7l-.5-1.9h0Z"/>
</svg>