<?xml version="1.0" encoding="UTF-8"?>
<svg width="18" height="18" id="Layer_2" xmlns="http://www.w3.org/2000/svg" version="1.1" viewBox="0 0 20 20">
  <!-- Generator: Adobe Illustrator 29.7.1, SVG Export Plug-In . SVG Version: 2.1.1 Build 8)  -->
  <defs>
    <style>
      .st0 {
        fill: #f0f1f2;
      }
    </style>
  </defs>
  <rect class="st0" width="20" height="20" rx="3" ry="3"/>
  <path d="M7.8,5.1c0-.7.6-1.3,1.3-1.3h1.8c.7,0,1.3.6,1.3,1.3v1.8c0,.7-.6,1.3-1.3,1.3h-.2v1.1h4.2c.9,0,1.6.7,1.6,1.6v.9h.2c.7,0,1.3.6,1.3,1.3v1.8c0,.7-.6,1.3-1.3,1.3h-1.8c-.7,0-1.3-.6-1.3-1.3v-1.8c0-.7.6-1.3,1.3-1.3h.2v-.9c0-.1-.1-.2-.2-.2h-4.2v1.1h.2c.7,0,1.3.6,1.3,1.3v1.8c0,.7-.6,1.3-1.3,1.3h-1.8c-.7,0-1.3-.6-1.3-1.3v-1.8c0-.7.6-1.3,1.3-1.3h.2v-1.1h-4.2c-.1,0-.2.1-.2.2v.9h.2c.7,0,1.3.6,1.3,1.3v1.8c0,.7-.6,1.3-1.3,1.3h-1.8c-.7,0-1.3-.6-1.3-1.3v-1.8c0-.7.6-1.3,1.3-1.3h.2v-.9c0-.9.7-1.6,1.6-1.6h4.2v-1.1h-.2c-.7,0-1.3-.6-1.3-1.3,0,0,0-1.8,0-1.8Z"/>
</svg>