<?xml version="1.0" encoding="UTF-8"?>
<svg width="18" height="18" id="Layer_2" xmlns="http://www.w3.org/2000/svg" version="1.1" viewBox="0 0 20 20">
  <!-- Generator: Adobe Illustrator 29.7.1, SVG Export Plug-In . SVG Version: 2.1.1 Build 8)  -->
  <defs>
    <style>
      .st0 {
        fill: #f0f1f2;
      }
    </style>
  </defs>
  <g>
    <rect class="st0" width="20" height="20" rx="3" ry="3"/>
    <path d="M2,15V5c0-.6.5-1,1-1,.6,0,1,.4,1,1v4.1l5.4-4.9c.6-.5,1.6,0,1.6.8v4.1l5.4-4.9c.6-.5,1.6,0,1.6.8v10c0,.9-1,1.3-1.6.8l-5.4-4.9v4.1c0,.9-1,1.3-1.6.8l-5.4-4.9v4.1c0,.5-.4,1-1,1s-1-.4-1-1h0Z"/>
  </g>
  <g>
    <rect class="st0" width="20" height="20" rx="3" ry="3"/>
    <path d="M2,15V5c0-.6.5-1,1-1,.6,0,1,.4,1,1v4.1l5.4-4.9c.6-.5,1.6,0,1.6.8v4.1l5.4-4.9c.6-.5,1.6,0,1.6.8v10c0,.9-1,1.3-1.6.8l-5.4-4.9v4.1c0,.9-1,1.3-1.6.8l-5.4-4.9v4.1c0,.5-.4,1-1,1s-1-.4-1-1h0Z"/>
  </g>
</svg>