<?xml version="1.0" encoding="UTF-8"?>
<svg width="18" height="18" id="Layer_2" xmlns="http://www.w3.org/2000/svg" version="1.1" viewBox="0 0 20 20">
  <!-- Generator: Adobe Illustrator 29.7.1, SVG Export Plug-In . SVG Version: 2.1.1 Build 8)  -->
  <defs>
    <style>
      .st0 {
        fill: #f0f1f2;
      }
    </style>
  </defs>
  <rect class="st0" width="20" height="20" rx="3" ry="3"/>
  <path d="M10.2,2c-.9.3-1.8,1-2.5,1.9.6,1.6.6,2,0,3.6.7.5,1.4.9,2.1.9,0-.9-.1-1.8,0-2.6-.5,0-.8-.2-1.3-.5v-1.1c1.2.7,2.1.6,3.4,0v1.1c-.5.2-.8.4-1.2.4.1.9.1,1.8,0,2.6.6-.1,1.3-.4,1.9-.9-.5-1.6-.5-2,0-3.6-.6-1-1.6-1.6-2.5-1.9h0ZM5.8,2.3c-.9,3.8-.9,7.3-.9,11.3-.6,0-1.3-.2-1.9-.4v1h2.4c.3,1.2.2,2.4,0,3.6h1c-.2-1.2-.3-2.4,0-3.6h2.4v-1c-.6.2-1.3.3-1.9.4,0-3.9,0-7.6-.8-11.3h0ZM8.9,9.2c0,4,.9,8,4.1,8.8,3.6-.7,4.1-4.8,4.1-8.8h-8.2Z"/>
</svg>