<?xml version="1.0" encoding="UTF-8"?>
<svg width="18" height="18" id="Layer_2" xmlns="http://www.w3.org/2000/svg" version="1.1" viewBox="0 0 20 20">
  <!-- Generator: Adobe Illustrator 29.7.1, SVG Export Plug-In . SVG Version: 2.1.1 Build 8)  -->
  <defs>
    <style>
      .st0 {
        fill: #f0f1f2;
      }
    </style>
  </defs>
  <rect class="st0" width="20" height="20" rx="3" ry="3"/>
  <path d="M12,5h-4l-1.5-2.2c-.2-.3,0-.8.4-.8h6.1c.4,0,.6.4.4.8l-1.5,2.2h0ZM8,6h4c.1,0,.2.2.4.3,1.8,1.1,5.6,3.6,5.6,8.7s-1.3,3-3,3H5c-1.7,0-3-1.3-3-3,0-5.2,3.8-7.6,5.6-8.7.1-.1.3-.2.4-.3ZM10.6,8.8c0-.3-.3-.6-.6-.6s-.6.3-.6.6v.4c-.2,0-.5.1-.7.3-.4.3-.8.7-.8,1.4s.4,1,.8,1.3c.3.2.8.3,1.1.4h0c.4.1.7.2.9.4.2.1.2.2.2.3,0,.2,0,.2-.2.3-.2.1-.4.2-.7.1-.4,0-.7-.1-1.1-.3,0,0-.1,0-.2,0-.3-.1-.7,0-.8.4s0,.7.4.8c0,0,.1,0,.2,0,.3,0,.6.2.9.3v.5c0,.3.3.6.6.6s.6-.3.6-.6v-.4c.2,0,.5-.1.7-.3.4-.3.8-.8.8-1.4,0-.6-.4-1-.8-1.3-.4-.2-.8-.4-1.2-.5h0c-.4-.1-.7-.2-.9-.3-.2-.1-.2-.1-.2-.2,0-.1,0-.2.2-.3.2-.1.4-.2.7-.2s.6,0,1,.2c.3,0,.7-.1.8-.4s-.1-.7-.4-.8c-.2,0-.4-.1-.7-.1v-.4h0Z"/>
</svg>