<?xml version="1.0" encoding="UTF-8"?>
<svg width="18" height="18" id="Layer_2" xmlns="http://www.w3.org/2000/svg" version="1.1" viewBox="0 0 20 20">
  <!-- Generator: Adobe Illustrator 29.7.1, SVG Export Plug-In . SVG Version: 2.1.1 Build 8)  -->
  <defs>
    <style>
      .st0 {
        fill: #f0f1f2;
      }
    </style>
  </defs>
  <rect class="st0" width="20" height="20" rx="3" ry="3"/>
  <path d="M18,10c0,4.4-3.6,8-8,8S2,14.4,2,10,5.6,2,10,2s8,3.6,8,8ZM5.1,6.5c-.7,1-1.1,2.2-1.1,3.5,0,3.3,2.7,6,6,6s2.5-.4,3.5-1.1L5.1,6.5h0ZM16,10c0-3.3-2.7-6-6-6s-2.5.4-3.5,1.1l8.4,8.4c.7-1,1.1-2.2,1.1-3.5h0Z"/>
</svg>