<?xml version="1.0" encoding="UTF-8"?>
<svg width="18" height="18" id="Layer_2" xmlns="http://www.w3.org/2000/svg" version="1.1" viewBox="0 0 20 20">
  <!-- Generator: Adobe Illustrator 29.7.1, SVG Export Plug-In . SVG Version: 2.1.1 Build 8)  -->
  <defs>
    <style>
      .st0 {
        fill: #f0f1f2;
      }
    </style>
  </defs>
  <rect class="st0" width="20" height="20" rx="3" ry="3"/>
  <path d="M10,2c-.9,0-1.7.4-2.3,1.2-.6.8-1,1.9-1,3.1s.4,2.4,1.1,3.2l.5.5-.7.2c-1.9.4-2.8,1.3-3.3,2.7-.5,1.3-.6,3-.6,5.1h12.5c0-2.1,0-3.9-.5-5.2-.5-1.4-1.4-2.3-3.4-2.7h-.7c0-.1.5-.7.5-.7.6-.8,1-1.9,1-3.1s-.4-2.3-1-3.1c-.6-.8-1.4-1.2-2.3-1.2h0Z"/>
</svg>