<?xml version="1.0" encoding="UTF-8"?>
<svg width="18" height="18" id="Layer_2" xmlns="http://www.w3.org/2000/svg" version="1.1" viewBox="0 0 20 20">
  <!-- Generator: Adobe Illustrator 29.7.1, SVG Export Plug-In . SVG Version: 2.1.1 Build 8)  -->
  <defs>
    <style>
      .st0 {
        fill: #f0f1f2;
      }
    </style>
  </defs>
  <rect class="st0" width="20" height="20" rx="3" ry="3"/>
  <path d="M5.7,2h0c-.8.1-1.6,1.1-1.6,2.3s.2,1.3.6,1.7l.3.4h-.5c-.5.2-.8.4-1.1.8-.3.4-.5.9-.7,1.6-.3,1.1-.3,2.5-.3,3.8h1.5l.4,5.4h3.3l.4-5.4h1.4c0-1.2,0-2.6-.3-3.8-.1-.6-.4-1.2-.6-1.6-.3-.4-.6-.6-1.2-.7h-.5c0,0,.3-.5.3-.5.3-.4.6-1,.6-1.7,0-1.3-.8-2.3-1.8-2.3h-.2,0ZM16.6,2.3c-.6,0-1,.5-1,1s.5,1.1,1,1.1,1-.5,1-1.1-.5-1-1-1ZM12.2,3v1.6h-3.5v.6h3.5v5.4h-1.9v.6h1.9v3.7h-3.5v.6h3.5v1.1h2.7c0-.1,0-.2,0-.3s0-.2,0-.3h-2.1v-4.8h2.1c0-.1,0-.2,0-.3s0-.2,0-.3h-2.1V3.6h2.1c0,0,0-.2,0-.3s0-.2,0-.3h-2.7ZM16.6,9.9c-.6,0-1,.5-1,1.1s.5,1.1,1,1.1,1-.5,1-1.1-.5-1.1-1-1.1ZM16.6,15.3c-.6,0-1,.5-1,1s.5,1,1,1,1-.5,1-1-.5-1-1-1Z"/>
</svg>