<?xml version="1.0" encoding="UTF-8"?>
<svg width="18" height="18" id="Layer_2" xmlns="http://www.w3.org/2000/svg" version="1.1" viewBox="0 0 20 20">
  <!-- Generator: Adobe Illustrator 29.7.1, SVG Export Plug-In . SVG Version: 2.1.1 Build 8)  -->
  <defs>
    <style>
      .st0 {
        fill: #f0f1f2;
      }
    </style>
  </defs>
  <rect class="st0" width="20" height="20" rx="3" ry="3"/>
  <path d="M16.2,3H3.8c-1,0-1.8.9-1.8,2v10c0,1.1.8,2,1.8,2h12.4c1,0,1.8-.9,1.8-2V5c0-1.1-.8-2-1.8-2h0ZM13.8,12l-3.2,3.5c-.1.1-.3.2-.6.2s-.4,0-.6-.2l-3.2-3.5c-.2-.2-.3-.5-.1-.8s.4-.4.7-.4h6.5c.3,0,.6.2.7.4.1.3,0,.6-.1.8h0ZM14.2,9.5H5.7c-.5,0-.9-.3-.9-.8s.4-.8.9-.8h8.5c.5,0,.9.3.9.8s-.4.8-.9.8ZM14.2,6.5H5.7c-.5,0-.9-.3-.9-.8s.4-.8.9-.8h8.5c.5,0,.9.3.9.8s-.4.8-.9.8Z"/>
</svg>