<?xml version="1.0" encoding="UTF-8"?>
<svg width="18" height="18" id="Layer_2" xmlns="http://www.w3.org/2000/svg" version="1.1" viewBox="0 0 20 20">
  <!-- Generator: Adobe Illustrator 29.7.1, SVG Export Plug-In . SVG Version: 2.1.1 Build 8)  -->
  <defs>
    <style>
      .st0 {
        fill: #f0f1f2;
      }
    </style>
  </defs>
  <rect class="st0" width="20" height="20" rx="3" ry="3"/>
  <path d="M9,2c-1.1,0-2,.9-2,2v7c0,1.1.9,2,2,2h7c1.1,0,2-.9,2-2v-7c0-1.1-.9-2-2-2h-7ZM4,7c-1.1,0-2,.9-2,2v7c0,1.1.9,2,2,2h7c1.1,0,2-.9,2-2v-2h-2v2H4v-7h2v-2h-2Z"/>
</svg>