<?xml version="1.0" encoding="UTF-8"?>
<svg width="18" height="18" id="Layer_2" xmlns="http://www.w3.org/2000/svg" version="1.1" viewBox="0 0 20 20">
  <!-- Generator: Adobe Illustrator 29.7.1, SVG Export Plug-In . SVG Version: 2.1.1 Build 8)  -->
  <defs>
    <style>
      .st0 {
        fill: #f0f1f2;
      }
    </style>
  </defs>
  <rect class="st0" width="20" height="20" rx="3" ry="3"/>
  <path d="M12.1,10.2l2.4-2.4c.3-.3.3-.7,0-.9l-1.4-1.4c-.3-.3-.7-.3-.9,0l-2.3,2.4h0l-7.6,7.6c-.3.3-.3.7,0,.9l1.4,1.4c.3.3.7.3.9,0l7.6-7.6h0ZM12.6,6.9l.5.5-1.4,1.4-.5-.5,1.4-1.4h0ZM4.1,16.4l-.5-.5,6.6-6.6.5.5s-6.6,6.6-6.6,6.6ZM17.3,6.7h-1.3c-.4,0-.7.3-.7.7s.3.7.7.7h1.3c.4,0,.7-.3.7-.7s-.3-.7-.7-.7ZM12.7,4.7c.4,0,.7-.3.7-.7v-1.3c0-.4-.3-.7-.7-.7s-.7.3-.7.7v1.3c0,.4.3.7.7.7h0ZM12.7,10.7c-.4,0-.7.3-.7.7v.7c0,.4.3.7.7.7s.7-.3.7-.7v-.7c0-.4-.3-.7-.7-.7ZM9.8,5.5c.3.3.7.3.9,0s.3-.7,0-.9l-.9-.9c-.3-.3-.7-.3-.9,0s-.3.7,0,.9l.9.9h0ZM15.5,9.2c-.3-.3-.7-.3-.9,0s-.3.7,0,.9l.9.9c.3.3.7.3.9,0s.3-.7,0-.9l-.9-.9ZM15.5,5.5l.9-.9c.3-.3.3-.7,0-.9s-.7-.3-.9,0l-.9.9c-.3.3-.3.7,0,.9s.7.3.9,0Z"/>
</svg>