<?xml version="1.0" encoding="UTF-8"?>
<svg width="18" height="18" id="Layer_2" xmlns="http://www.w3.org/2000/svg" version="1.1" viewBox="0 0 20 20">
  <!-- Generator: Adobe Illustrator 29.7.1, SVG Export Plug-In . SVG Version: 2.1.1 Build 8)  -->
  <defs>
    <style>
      .st0 {
        fill: #f0f1f2;
      }
    </style>
  </defs>
  <rect class="st0" width="20" height="20" rx="3" ry="3"/>
  <path d="M6,2c-1.1,0-2,.9-2,2v12c0,1.1.9,2,2,2h8c1.1,0,2-.9,2-2V4c0-1.1-.9-2-2-2H6ZM7,4h6c.6,0,1,.4,1,1v1c0,.6-.4,1-1,1h-6c-.6,0-1-.4-1-1v-1c0-.6.4-1,1-1ZM6,9c0-.6.4-1,1-1s1,.4,1,1-.4,1-1,1-1-.4-1-1ZM7,11c.6,0,1,.4,1,1s-.4,1-1,1-1-.4-1-1,.4-1,1-1ZM6,15c0-.5.4-1,1-1h3c.6,0,1,.5,1,1s-.4,1-1,1h-3c-.6,0-1-.5-1-1ZM10,8c.6,0,1,.4,1,1s-.4,1-1,1-1-.4-1-1,.4-1,1-1ZM9,12c0-.6.4-1,1-1s1,.4,1,1-.4,1-1,1-1-.4-1-1ZM13,8c.6,0,1,.4,1,1s-.4,1-1,1-1-.4-1-1,.4-1,1-1ZM12,12c0-.6.4-1,1-1s1,.4,1,1-.4,1-1,1-1-.4-1-1ZM13,14c.6,0,1,.5,1,1s-.4,1-1,1-1-.5-1-1,.4-1,1-1Z"/>
</svg>