<?xml version="1.0" encoding="UTF-8"?>
<svg width="18" height="18" id="Layer_2" xmlns="http://www.w3.org/2000/svg" version="1.1" viewBox="0 0 20 20">
  <!-- Generator: Adobe Illustrator 29.7.1, SVG Export Plug-In . SVG Version: 2.1.1 Build 8)  -->
  <defs>
    <style>
      .st0 {
        fill: #f0f1f2;
      }
    </style>
  </defs>
  <rect class="st0" width="20" height="20" rx="3" ry="3"/>
  <path d="M10,2.8c-2.2,0-3.2.4-3.6.9-.4.4-.5,1.1-.5,1.8h1.1c0-.5.2-.9.7-1.2.5-.3,1.3-.5,2.4-.5s1.9.1,2.4.5c.4.3.6.7.7,1.2h1c0-.7,0-1.3-.5-1.8-.5-.5-1.5-.9-3.6-.9h0ZM5.3,6.1v.6h2.1v-.6h-2.1ZM12.5,6.1v.6h2.1v-.6h-2.1ZM4,7.3c-.5,0-1,.2-1.3.6s-.6.9-.6,1.3v6.7c0,.5.1.8.3,1,.2.2.5.3,1,.3h13.3c.5,0,.8-.1,1-.3.2-.2.3-.5.3-1v-6.6c0-.4-.2-.9-.6-1.3-.4-.4-.9-.6-1.3-.6H3.9h0ZM8.9,9.2h2.2v2.2h2.2v2.2h-2.2v2.2h-2.2v-2.2h-2.2v-2.2h2.2v-2.2h0Z"/>
</svg>