<?xml version="1.0" encoding="UTF-8"?>
<svg width="18" height="18" id="Layer_2" xmlns="http://www.w3.org/2000/svg" version="1.1" viewBox="0 0 20 20">
  <!-- Generator: Adobe Illustrator 29.7.1, SVG Export Plug-In . SVG Version: 2.1.1 Build 8)  -->
  <defs>
    <style>
      .st0 {
        fill: #f0f1f2;
      }
    </style>
  </defs>
  <rect class="st0" width="20" height="20" rx="3" ry="3"/>
  <path d="M17,4.5v1.5c0,1.4-3.1,2.5-7,2.5s-7-1.1-7-2.5v-1.5c0-1.4,3.1-2.5,7-2.5s7,1.1,7,2.5ZM15.3,8.7c.6-.2,1.2-.5,1.7-.9v3.2c0,1.4-3.1,2.5-7,2.5s-7-1.1-7-2.5v-3.2c.5.4,1.1.7,1.7.9,1.4.5,3.3.8,5.3.8s3.9-.3,5.3-.8ZM3,12.8c.5.4,1.1.7,1.7.9,1.4.5,3.3.8,5.3.8s3.9-.3,5.3-.8c.6-.2,1.2-.5,1.7-.9v2.7c0,1.4-3.1,2.5-7,2.5s-7-1.1-7-2.5c0,0,0-2.7,0-2.7Z"/>
</svg>