<?xml version="1.0" encoding="UTF-8"?>
<svg width="18" height="18" id="Layer_2" xmlns="http://www.w3.org/2000/svg" version="1.1" viewBox="0 0 20 20">
  <!-- Generator: Adobe Illustrator 29.7.1, SVG Export Plug-In . SVG Version: 2.1.1 Build 8)  -->
  <defs>
    <style>
      .st0 {
        fill: #f0f1f2;
      }
    </style>
  </defs>
  <rect class="st0" width="20" height="20" rx="3" ry="3"/>
  <path d="M9.4,2c-1.9,0-3.7,1-5.1,2.4-1.8,1.9-2.8,4.7-2.1,7.1.6-.3,1.1-.5,1.7-.7-.2-4.2,3-7.1,6.7-7.1.1-.4.4-.9.6-1.4-.6-.2-1.1-.3-1.6-.3h-.2ZM10.5,4.3c-3.3,0-6.1,2.6-5.9,6.3.4,0,.7-.1,1.1-.2.5,0,1,0,1.4,0l3.7-3.7c-.2-.4-.3-.9-.3-1.3,0-.4,0-.8,0-1.2h0ZM12.5,6.4l-.6.6,1,1,.6-.6-1-1h0ZM11.3,7.2l-4,4,1.5,1.5,4-4-1.5-1.5ZM17.7,8.7c-.5.3-1,.5-1.4.6,0,3.7-2.9,7-7.1,6.7-.2.5-.4,1.1-.7,1.6,2.4.7,5.2-.3,7.1-2.1,1.9-1.8,3-4.4,2.1-6.9h0ZM13.1,9.2l-3.6,3.6c.1.5.1.9.1,1.5,0,.4,0,.7-.2,1.1,3.7.1,6.2-2.7,6.3-6-.4,0-.8.1-1.2,0-.5,0-.9-.1-1.4-.3h0ZM7.1,11.9l-5,5v1.1h1l5.1-5.1-1-1h0Z"/>
</svg>