<?xml version="1.0" encoding="UTF-8"?>
<svg width="18" height="18" id="Layer_2" xmlns="http://www.w3.org/2000/svg" version="1.1" viewBox="0 0 20 20">
  <!-- Generator: Adobe Illustrator 29.7.1, SVG Export Plug-In . SVG Version: 2.1.1 Build 8)  -->
  <defs>
    <style>
      .st0 {
        fill: #f0f1f2;
      }
    </style>
  </defs>
  <rect class="st0" width="20" height="20" rx="3" ry="3"/>
  <path d="M9.3,2.2c.5-.2,1-.2,1.5,0l6.8,3.2c.3.1.4.4.4.7s-.2.6-.4.7l-6.8,3.2c-.5.2-1,.2-1.5,0l-6.8-3.2c-.3-.1-.4-.4-.4-.7s.2-.5.4-.7c0,0,6.8-3.2,6.8-3.2ZM17.6,9.3c.3.1.4.4.4.6s-.2.6-.4.7l-6.8,3.2c-.5.2-1,.2-1.5,0l-6.8-3.2c-.3-.1-.4-.4-.4-.7s.2-.5.4-.6l1.7-.8,4.8,2.2c.7.3,1.6.3,2.3,0l4.8-2.2,1.7.8h0ZM11.2,14.7l4.8-2.2,1.7.8c.3.1.4.4.4.6s-.2.6-.4.7l-6.8,3.2c-.5.2-1,.2-1.5,0l-6.8-3.2c-.3-.1-.4-.4-.4-.7s.2-.5.4-.6l1.7-.8,4.8,2.2c.7.3,1.6.3,2.3,0h0Z"/>
</svg>