<?xml version="1.0" encoding="UTF-8"?>
<svg width="18" height="18" id="Layer_2" xmlns="http://www.w3.org/2000/svg" version="1.1" viewBox="0 0 20 20">
  <!-- Generator: Adobe Illustrator 29.7.1, SVG Export Plug-In . SVG Version: 2.1.1 Build 8)  -->
  <defs>
    <style>
      .st0 {
        fill: #f0f1f2;
      }
    </style>
  </defs>
  <rect class="st0" x="0" width="20" height="20" rx="3" ry="3"/>
  <path d="M18,10c0,4.4-3.6,8-8,8S2,14.4,2,10,5.6,2,10,2s8,3.6,8,8ZM10,11.6c-.8,0-1.5.7-1.5,1.5s.7,1.5,1.5,1.5,1.5-.7,1.5-1.5-.7-1.5-1.5-1.5ZM8.6,6.3l.2,4.4c0,.2.2.4.4.4h1.6c.2,0,.4-.2.4-.4l.2-4.4c0-.2-.2-.4-.4-.4h-2c-.2,0-.4.2-.4.4h0Z"/>
</svg>