<?xml version="1.0" encoding="UTF-8"?>
<svg width="18" height="18" id="Layer_2" xmlns="http://www.w3.org/2000/svg" version="1.1" viewBox="0 0 20 20">
  <!-- Generator: Adobe Illustrator 29.7.1, SVG Export Plug-In . SVG Version: 2.1.1 Build 8)  -->
  <defs>
    <style>
      .st0 {
        fill: #f0f1f2;
      }
    </style>
  </defs>
  <rect class="st0" width="20" height="20" rx="3" ry="3"/>
  <path d="M17.8,15.1c.5.9-.1,2-1.1,2H3.3c-1,0-1.7-1.1-1.2-2L8.9,3.6c.5-.9,1.8-.9,2.3,0l6.7,11.6h0ZM10,12.7c-.7,0-1.3.6-1.3,1.3s.6,1.3,1.3,1.3,1.3-.6,1.3-1.3-.6-1.3-1.3-1.3ZM8.8,8.1l.2,3.8c0,.2.2.3.3.3h1.4c.2,0,.3-.1.3-.3l.2-3.8c0-.2-.1-.4-.3-.4h-1.8c-.2,0-.3.2-.3.4h0Z"/>
</svg>