<?xml version="1.0" encoding="UTF-8"?>
<svg width="18" height="18" id="Layer_2" xmlns="http://www.w3.org/2000/svg" version="1.1" viewBox="0 0 20 20">
  <!-- Generator: Adobe Illustrator 29.7.1, SVG Export Plug-In . SVG Version: 2.1.1 Build 8)  -->
  <defs>
    <style>
      .st0 {
        fill: #f0f1f2;
      }
    </style>
  </defs>
  <rect class="st0" width="20" height="20" rx="3" ry="3"/>
  <path d="M17.8,10.6l-3.5,3.2c-.2.2-.5.3-.8.1s-.5-.4-.5-.7v-1.8h-6v1.8c0,.3-.2.6-.4.7-.3.1-.6,0-.8-.1l-3.5-3.2c-.3-.3-.3-.8,0-1.1l3.5-3.2c.2-.2.5-.3.8-.1.3.1.5.4.5.7v1.7h6v-1.8c0-.3.2-.6.5-.7s.6,0,.8.1l3.5,3.2c.3.3.3.8,0,1.1h0Z"/>
</svg>