<?xml version="1.0" encoding="UTF-8"?>
<svg width="18" height="18" id="Layer_2" xmlns="http://www.w3.org/2000/svg" version="1.1" viewBox="0 0 20 20">
  <!-- Generator: Adobe Illustrator 29.7.1, SVG Export Plug-In . SVG Version: 2.1.1 Build 8)  -->
  <defs>
    <style>
      .st0 {
        fill: #f0f1f2;
      }
    </style>
  </defs>
  <rect class="st0" width="20" height="20" rx="3" ry="3"/>
  <path d="M11,10.3c0,.6-.5,1-1,1s-1-.5-1-1V3c0-.6.5-1,1-1s1,.5,1,1v7.2ZM4.3,10.3c0,3.1,2.5,5.7,5.7,5.7s5.7-2.5,5.7-5.7-.8-3.3-2-4.4c-.4-.4-.5-1-.1-1.4.4-.4,1-.5,1.5-.1,1.7,1.4,2.8,3.6,2.8,5.9,0,4.3-3.5,7.8-7.7,7.8s-7.7-3.5-7.7-7.8,1.1-4.5,2.8-5.9c.4-.4,1.1-.3,1.4.1.3.4.3,1.1-.1,1.5-1.2,1-2.1,2.6-2.1,4.4h0Z"/>
</svg>