<?xml version="1.0" encoding="UTF-8"?>
<svg width="18" height="18" id="Layer_2" xmlns="http://www.w3.org/2000/svg" version="1.1" viewBox="0 0 20 20">
  <!-- Generator: Adobe Illustrator 29.7.1, SVG Export Plug-In . SVG Version: 2.1.1 Build 8)  -->
  <defs>
    <style>
      .st0 {
        fill: #f0f1f2;
      }
    </style>
  </defs>
  <rect class="st0" width="20" height="20" rx="3" ry="3"/>
  <path d="M11,1.9c-.2-.4-.6-.6-1-.6s-.8.2-1,.6l-2.2,4.5-4.9.7c-.4,0-.8.3-.9.7-.1.4,0,.8.3,1.1l3.6,3.5-.8,5c0,.4,0,.8.4,1.1s.8.3,1.2,0l4.4-2.3,4.4,2.3c.4.2.8.2,1.1,0s.5-.7.4-1.1l-.8-5,3.5-3.5c.3-.3.4-.7.3-1.1s-.5-.7-.9-.7l-4.9-.7-2.2-4.5h0Z"/>
</svg>