<?xml version="1.0" encoding="UTF-8"?>
<svg width="18" height="18" id="Layer_2" xmlns="http://www.w3.org/2000/svg" version="1.1" viewBox="0 0 20 20">
  <!-- Generator: Adobe Illustrator 29.7.1, SVG Export Plug-In . SVG Version: 2.1.1 Build 8)  -->
  <defs>
    <style>
      .st0 {
        fill: #f0f1f2;
      }
    </style>
  </defs>
  <rect class="st0" width="20" height="20" rx="3" ry="3"/>
  <path d="M11.5,15h-2c-.3,0-.5.2-.5.5v1c0,.3.2.5.5.5h2c.3,0,.5-.2.5-.5v-1c0-.3-.2-.5-.5-.5ZM2.5,7h1.5v9.5c0,.3.2.5.5.5h1c.3,0,.5-.2.5-.5V7h1.5c.4,0,.7-.5.4-.9l-2.5-3c-.2-.2-.5-.2-.7,0l-2.5,3c-.3.3,0,.9.3.9h0ZM15.5,7h-6c-.3,0-.5.2-.5.5v1c0,.3.2.5.5.5h6c.3,0,.5-.2.5-.5v-1c0-.3-.2-.5-.5-.5ZM13.5,11h-4c-.3,0-.5.2-.5.5v1c0,.3.2.5.5.5h4c.3,0,.5-.2.5-.5v-1c0-.3-.2-.5-.5-.5ZM17.5,3h-8c-.3,0-.5.2-.5.5v1c0,.3.2.5.5.5h8c.3,0,.5-.2.5-.5v-1c0-.3-.2-.5-.5-.5Z"/>
</svg>