<?xml version="1.0" encoding="UTF-8"?>
<svg width="18" height="18" id="Layer_2" xmlns="http://www.w3.org/2000/svg" version="1.1" viewBox="0 0 20 20">
  <!-- Generator: Adobe Illustrator 29.7.1, SVG Export Plug-In . SVG Version: 2.1.1 Build 8)  -->
  <defs>
    <style>
      .st0 {
        fill: #f0f1f2;
      }
    </style>
  </defs>
  <rect class="st0" width="20" height="20" rx="3" ry="3"/>
  <path d="M15.4,18c.7,0,1.3-.6,1.3-1.3V3.3c0-.7-.6-1.3-1.3-1.3-.7,0-1.3.6-1.3,1.4v13.3c0,.7.6,1.3,1.4,1.3h0ZM5.5,17.7l8-6.6c.3-.3.5-.7.5-1.1s-.2-.8-.5-1L5.5,2.3c-.9-.7-2.2-.1-2.2,1v13.3c0,1.1,1.3,1.7,2.2,1Z"/>
</svg>