<?xml version="1.0" encoding="UTF-8"?>
<svg width="18" height="18" id="Layer_2" xmlns="http://www.w3.org/2000/svg" version="1.1" viewBox="0 0 20 20">
  <!-- Generator: Adobe Illustrator 29.7.1, SVG Export Plug-In . SVG Version: 2.1.1 Build 8)  -->
  <defs>
    <style>
      .st0 {
        fill: #f0f1f2;
      }
    </style>
  </defs>
  <rect class="st0" width="20" height="20" rx="3" ry="3"/>
  <path d="M9,3c0-.6.5-1,1-1s1,.4,1,1h4.8c.1,0,.3,0,.4.2l1.5,1.5c.2.2.2.5,0,.7l-1.5,1.5c0,0-.2.1-.4.1H4c-.5,0-1-.4-1-1v-2c0-.6.5-1,1-1h5ZM17,12c0,.6-.5,1-1,1H4.2c-.1,0-.3,0-.4-.1l-1.5-1.5c-.2-.2-.2-.5,0-.7l1.5-1.5c0,0,.2-.2.4-.2h4.8v-1h2v1h5c.5,0,1,.5,1,1v2h0ZM10,18c-.5,0-1-.5-1-1v-3h2v3c0,.5-.4,1-1,1Z"/>
</svg>