<?xml version="1.0" encoding="UTF-8"?>
<svg width="18" height="18" id="Layer_2" xmlns="http://www.w3.org/2000/svg" version="1.1" viewBox="0 0 20 20">
  <!-- Generator: Adobe Illustrator 29.7.1, SVG Export Plug-In . SVG Version: 2.1.1 Build 8)  -->
  <defs>
    <style>
      .st0 {
        fill: #f0f1f2;
      }
    </style>
  </defs>
  <rect class="st0" width="20" height="20" rx="3" ry="3"/>
  <path d="M17.9,11l-2,3.5c-.3.5-.9.9-1.5.9H3.2c-.5,0-.8-.6-.6-1l2-3.4c.3-.6.9-.9,1.5-.9h11.1c.5,0,.8.6.6,1h0ZM6.2,9.1h9.1v-1.3c0-.7-.6-1.3-1.3-1.3h-4.4l-1.8-1.8H3.3c-.7,0-1.3.6-1.3,1.3v7.7l1.9-3.3c.5-.8,1.4-1.3,2.3-1.3h0Z"/>
</svg>