<?xml version="1.0" encoding="UTF-8"?>
<svg width="18" height="18" id="Layer_2" xmlns="http://www.w3.org/2000/svg" version="1.1" viewBox="0 0 20 20">
  <!-- Generator: Adobe Illustrator 29.7.1, SVG Export Plug-In . SVG Version: 2.1.1 Build 8)  -->
  <defs>
    <style>
      .st0 {
        fill: #f0f1f2;
      }
    </style>
  </defs>
  <rect class="st0" width="20" height="20" rx="3" ry="3"/>
  <path d="M10,17h-5.8c-.4,0-.8,0-1.1-.2-.7-.4-1-1-1.1-1.8,0-3.3,0-6.7,0-10,0-1.1.9-2,2.1-2h11.8c.4,0,.8,0,1.1.2.7.4,1,1,1.1,1.8,0,3.3,0,6.7,0,10,0,1.1-.9,2-2.1,2h-5.9ZM16,5h-7v10h7V5h0ZM5.5,6.5h.7c.5,0,.8-.3.8-.8,0-.4-.3-.8-.8-.8h-1.4c-.5,0-.8.3-.8.8,0,.4.3.8.8.8.2,0,.5,0,.7,0ZM5.5,9.5h.7c.5,0,.8-.3.8-.8s-.3-.8-.8-.8h-1.4c-.5,0-.8.3-.8.8s.3.8.8.8h.7,0ZM5.5,12.5h.7c.5,0,.8-.3.8-.8s-.3-.7-.8-.8h-1.4c-.5,0-.8.3-.8.8s.3.7.8.8h.7Z"/>
</svg>