<?xml version="1.0" encoding="UTF-8"?>
<svg width="18" height="18" id="Layer_2" xmlns="http://www.w3.org/2000/svg" version="1.1" viewBox="0 0 20 20">
  <!-- Generator: Adobe Illustrator 29.7.1, SVG Export Plug-In . SVG Version: 2.1.1 Build 8)  -->
  <defs>
    <style>
      .st0 {
        fill: #f0f1f2;
      }
    </style>
  </defs>
  <rect class="st0" width="20" height="20" rx="3" ry="3"/>
  <path d="M17.9,15.9l-2.3-9.1c-.1-.5-.5-.8-1-.8h-1.9c.1-.3.2-.6.2-1,0-1.7-1.3-3-3-3s-3,1.3-3,3,0,.7.2,1h-1.9c-.4,0-.8.3-1,.8l-2.3,9.1c-.3,1,.5,2.1,1.4,2.1h13c1,0,1.7-1,1.5-2.1h0ZM10,6c-.6,0-1-.4-1-1s.5-1,1-1,1,.4,1,1-.4,1-1,1Z"/>
</svg>