<?xml version="1.0" encoding="UTF-8"?>
<svg width="18" height="18" id="Layer_2" xmlns="http://www.w3.org/2000/svg" version="1.1" viewBox="0 0 20 20">
  <!-- Generator: Adobe Illustrator 29.7.1, SVG Export Plug-In . SVG Version: 2.1.1 Build 8)  -->
  <defs>
    <style>
      .st0 {
        fill: #f0f1f2;
      }
    </style>
  </defs>
  <rect class="st0" width="20" height="20" rx="3" ry="3"/>
  <path d="M7.2,2.5c.2-.3.5-.6.9-.6h3.8c.4,0,.7.2.9.6l.2.4h3c.5,0,1,.4,1,1s-.5,1-1,1H4c-.6,0-1-.4-1-1s.4-1,1-1h3l.2-.4h0ZM15.3,16.6c0,.8-.7,1.4-1.5,1.4h-7.7c-.8,0-1.4-.6-1.5-1.4l-.7-10.6h12l-.7,10.6Z"/>
</svg>