<?xml version="1.0" encoding="UTF-8"?>
<svg width="18" height="18" id="Layer_2" xmlns="http://www.w3.org/2000/svg" version="1.1" viewBox="0 0 20 20">
  <!-- Generator: Adobe Illustrator 29.7.1, SVG Export Plug-In . SVG Version: 2.1.1 Build 8)  -->
  <defs>
    <style>
      .st0 {
        fill: #f0f1f2;
      }
    </style>
  </defs>
  <rect class="st0" width="20" height="20" rx="3" ry="3"/>
  <path d="M10.3,2v.8c-.7,0-1.3,0-1.9.2l-.3-.8-1.8.7.3.9c-.5.3-1,.6-1.4,1l-.8-.6-1.2,1.5.8.6c-.3.5-.5,1-.7,1.6l-1-.2-.3,1.9,1,.2c0,.6,0,1.1.2,1.7l-1,.4.7,1.8.9-.4c.3.5.6,1,1,1.4l-.6.8,1.5,1.2.6-.7c.5.3,1,.5,1.6.7v.9c-.1,0,1.8.3,1.8.3v-.9c.7,0,1.3,0,1.9-.1l.3.8,1.8-.7-.3-.8c.5-.3,1-.6,1.5-1l.6.5,1.2-1.5-.6-.5c.3-.5.6-1.1.8-1.7h.7c0,.1.3-1.8.3-1.8h-.7c0-.7,0-1.4-.2-2l.7-.2-.7-1.8-.7.2c-.3-.5-.7-1-1.1-1.5l.5-.6-1.5-1.2-.5.6c-.5-.3-1.1-.6-1.7-.7v-.8c.1,0-1.8-.3-1.8-.3h0ZM10.1,3.6c.4,0,.8,0,1.1,0,3.5.6,5.8,3.8,5.2,7.3-.6,3.5-3.9,5.8-7.3,5.2-3.5-.6-5.8-3.9-5.2-7.3.5-3,3.1-5.2,6-5.3h.2,0ZM10.1,4.2h-.1c-2.7,0-5,2.1-5.4,4.8-.5,3.1,1.6,6.1,4.7,6.6s6.1-1.6,6.6-4.7c.5-3.1-1.6-6.1-4.7-6.6-.3,0-.7,0-1,0h0ZM10.1,4.8c.3,0,.6,0,.9,0,2.8.5,4.7,3.1,4.2,5.9-.5,2.8-3.1,4.7-5.9,4.2-.9-.1-1.6-.5-2.3-1l3.7-4.4,1.8,1.4,1.9-2.4-3.6-3-3.4,1.2,2.4,1.9-3.6,4.4c-.9-1.1-1.3-2.6-1.1-4.1.4-2.4,2.5-4.2,4.9-4.3h.1Z"/>
</svg>